<svg width="30" height="29" viewBox="0 0 30 29" fill="none" xmlns="http://www.w3.org/2000/svg">
<g id="Arrow double left active">
<path id="Path 94" d="M15.5158 8.13755C15.9863 7.66762 15.9863 6.90571 15.5158 6.43578C15.0454 5.96585 14.2826 5.96585 13.8122 6.43578L6.58416 13.6558C6.1281 14.1113 6.11214 14.8449 6.54796 15.3198L13.1736 22.5398C13.6232 23.0297 14.3852 23.0628 14.8757 22.6137C15.3661 22.1646 15.3992 21.4034 14.9497 20.9135L9.10341 14.5429L15.5158 8.13755Z" fill="#6993FF"/>
<path id="Path 94_2" opacity="0.3" d="M23.9486 8.13755C24.419 7.66762 24.419 6.90571 23.9486 6.43578C23.4781 5.96585 22.7154 5.96585 22.2449 6.43578L15.0169 13.6558C14.5608 14.1113 14.5449 14.8449 14.9807 15.3198L21.6064 22.5398C22.0559 23.0297 22.818 23.0628 23.3084 22.6137C23.7989 22.1646 23.832 21.4034 23.3824 20.9135L17.5362 14.5429L23.9486 8.13755Z" fill="#6993FF"/>
</g>
</svg>
