<svg width="29" height="30" viewBox="0 0 29 30" fill="none" xmlns="http://www.w3.org/2000/svg">
<g id="Barcode read">
<rect id="Rectangle 151" opacity="0.3" x="4.91187" y="5.45334" width="9.63733" height="19.2533" fill="#4A4B68"/>
<path id="Combined Shape" fill-rule="evenodd" clip-rule="evenodd" d="M21.7772 7.86001H18.1632C18.1632 7.86001 16.9585 7.65355 16.9585 6.65667C16.9585 5.6598 18.1632 5.45334 18.1632 5.45334H24.1865V11.47C24.1865 11.47 24.1865 12.6733 22.9819 12.6733C21.7772 12.6733 21.7772 11.47 21.7772 11.47V7.86001ZM10.9352 22.3H7.3212V18.69C7.3212 18.69 7.3212 17.4867 6.11653 17.4867C4.91187 17.4867 4.91187 18.69 4.91187 18.69V24.7067H10.9352C10.9352 24.7067 12.1399 24.5002 12.1399 23.5033C12.1399 22.5065 10.9352 22.3 10.9352 22.3ZM21.7772 18.69V22.3H18.1632C18.1632 22.3 16.9585 22.3 16.9585 23.5033C16.9585 24.7067 18.1632 24.7067 18.1632 24.7067H24.1865V18.69C24.1865 18.69 23.9798 17.4867 22.9819 17.4867C21.9839 17.4867 21.7772 18.69 21.7772 18.69ZM7.3212 11.47V7.86001H10.9352C10.9352 7.86001 12.1399 7.86001 12.1399 6.65667C12.1399 5.45334 10.9352 5.45334 10.9352 5.45334H4.91187V11.47C4.91187 11.47 5.11855 12.6733 6.11653 12.6733C7.11451 12.6733 7.3212 11.47 7.3212 11.47Z" fill="#4A4B68"/>
</g>
</svg>
