<svg width="21" height="20" viewBox="0 0 21 20" fill="none" xmlns="http://www.w3.org/2000/svg">
<g id="Group-chat">
<path id="Combined Shape" fill-rule="evenodd" clip-rule="evenodd" d="M18.7079 14.9755C19.0235 15.2911 19.563 15.0664 19.5615 14.6201L19.5483 10.9211V4.60526C19.5483 3.44256 18.6057 2.5 17.443 2.5H7.61845C6.45574 2.5 5.51318 3.44256 5.51318 4.60526V7.5H10.7117C12.3685 7.5 13.7117 8.84315 13.7117 10.5V13.0263H16.7588L18.7079 14.9755Z" fill="#1BC5BD"/>
<path id="Combined Shape_2" opacity="0.3" fill-rule="evenodd" clip-rule="evenodd" d="M2.03271 15V10.8333C2.03271 9.91285 2.77891 9.16666 3.69938 9.16666H10.366C11.2865 9.16666 12.0327 9.91285 12.0327 10.8333V15C12.0327 15.9205 11.2865 16.6667 10.366 16.6667H3.79582L2.90023 17.5239C2.58223 17.8282 2.05451 17.6028 2.05451 17.1626V15.2702C2.04017 15.1823 2.03271 15.092 2.03271 15ZM5.3785 12.0833C5.3785 11.8532 5.56505 11.6667 5.79517 11.6667H9.96183C10.192 11.6667 10.3785 11.8532 10.3785 12.0833C10.3785 12.3134 10.192 12.5 9.96183 12.5H5.79517C5.56505 12.5 5.3785 12.3134 5.3785 12.0833ZM8.29517 13.3333C8.06505 13.3333 7.8785 13.5199 7.8785 13.75C7.8785 13.9801 8.06505 14.1667 8.29517 14.1667H9.96183C10.192 14.1667 10.3785 13.9801 10.3785 13.75C10.3785 13.5199 10.192 13.3333 9.96183 13.3333H8.29517Z" fill="#1BC5BD"/>
</g>
</svg>
