<svg width="242" height="30" viewBox="0 0 242 30" fill="none" xmlns="http://www.w3.org/2000/svg">
<g id="Icons">
<g id="Search">
<path id="Path 2" opacity="0.3" d="M17.8074 20.9675C17.337 20.4976 17.337 19.7357 17.8074 19.2658C18.2779 18.7958 19.0406 18.7958 19.5111 19.2658L24.3298 24.0791C24.8002 24.549 24.8002 25.311 24.3298 25.7809C23.8593 26.2508 23.0965 26.2508 22.6261 25.7809L17.8074 20.9675Z" fill="#6993FF"/>
<path id="Path" fill-rule="evenodd" clip-rule="evenodd" d="M5.40771 14.1C5.40771 18.7521 9.18315 22.5233 13.8404 22.5233C18.4976 22.5233 22.273 18.7521 22.273 14.1C22.273 9.44791 18.4976 5.67666 13.8404 5.67666C9.18315 5.67666 5.40771 9.44791 5.40771 14.1ZM19.8637 14.1C19.8637 17.4229 17.167 20.1167 13.8404 20.1167C10.5138 20.1167 7.81705 17.4229 7.81705 14.1C7.81705 10.7771 10.5138 8.08333 13.8404 8.08333C17.167 8.08333 19.8637 10.7771 19.8637 14.1Z" fill="#6993FF"/>
</g>
<g id="Compiling">
<path id="Combined Shape" opacity="0.3" fill-rule="evenodd" clip-rule="evenodd" d="M56.4625 13.9336C55.8764 14.519 55.8764 15.4683 56.4625 16.0537L59.451 19.0389C60.0371 19.6244 60.9874 19.6244 61.5735 19.0389L64.562 16.0537C65.1481 15.4683 65.1481 14.519 64.562 13.9336L61.5735 10.9484C60.9874 10.363 60.0371 10.363 59.451 10.9484L56.4625 13.9336ZM70.9185 13.9336C70.3324 14.519 70.3324 15.4683 70.9185 16.0537L73.907 19.0389C74.4931 19.6244 75.4434 19.6244 76.0295 19.0389L79.018 16.0537C79.6041 15.4683 79.6041 14.519 79.018 13.9336L76.0295 10.9484C75.4434 10.363 74.4931 10.363 73.907 10.9484L70.9185 13.9336Z" fill="#6993FF"/>
<path id="Combined Shape_2" fill-rule="evenodd" clip-rule="evenodd" d="M63.6906 6.71358C63.1044 7.29905 63.1044 8.24827 63.6906 8.83373L66.679 11.8189C67.2651 12.4044 68.2154 12.4044 68.8015 11.8189L71.79 8.83373C72.3761 8.24827 72.3761 7.29905 71.79 6.71358L68.8015 3.72842C68.2154 3.14296 67.2651 3.14296 66.679 3.72842L63.6906 6.71358ZM63.6906 21.1536C63.1044 21.739 63.1044 22.6883 63.6906 23.2737L66.679 26.2589C67.2651 26.8444 68.2154 26.8444 68.8015 26.2589L71.79 23.2737C72.3761 22.6883 72.3761 21.739 71.79 21.1536L68.8015 18.1684C68.2154 17.583 67.2651 17.583 66.679 18.1684L63.6906 21.1536Z" fill="#6993FF"/>
</g>
<g id="Equalizer">
<rect id="Rectangle 62 Copy" opacity="0.3" x="122.26" y="5.67666" width="3.614" height="19.2533" rx="1.807" fill="#6993FF"/>
<rect id="Rectangle 62 Copy 2" x="116.237" y="11.6933" width="3.614" height="13.2367" rx="1.807" fill="#6993FF"/>
<rect id="Rectangle 62 Copy 4" x="128.284" y="14.1" width="3.614" height="10.83" rx="1.807" fill="#6993FF"/>
<rect id="Rectangle 62 Copy 3" x="110.213" y="16.5067" width="3.614" height="8.42333" rx="1.807" fill="#6993FF"/>
</g>
<g id="Stockholm icons / Shopping / Cart#3">
<path id="Path 30" opacity="0.3" d="M174.061 6.353L168.963 12.4637C168.537 12.9742 167.778 13.0432 167.266 12.6178C166.755 12.1923 166.686 11.4335 167.112 10.923L173.136 3.70297C173.617 3.12567 174.505 3.12567 174.986 3.70297L181.01 10.923C181.436 11.4335 181.367 12.1923 180.856 12.6178C180.344 13.0432 179.585 12.9742 179.159 12.4637L174.061 6.353Z" fill="#6993FF"/>
<path id="Combined Shape_3" fill-rule="evenodd" clip-rule="evenodd" d="M163.821 11.6933H184.301C184.966 11.6933 185.505 12.2321 185.505 12.8967C185.505 13.0555 185.474 13.2128 185.413 13.3595L181.011 23.9118C180.45 25.257 179.134 26.1333 177.675 26.1333H170.447C168.988 26.1333 167.672 25.257 167.111 23.9118L162.709 13.3595C162.453 12.746 162.744 12.0415 163.358 11.7859C163.505 11.7248 163.662 11.6933 163.821 11.6933ZM174.061 21.32C175.391 21.32 176.47 20.2425 176.47 18.9133C176.47 17.5842 175.391 16.5067 174.061 16.5067C172.73 16.5067 171.652 17.5842 171.652 18.9133C171.652 20.2425 172.73 21.32 174.061 21.32Z" fill="#6993FF"/>
</g>
<g id="Layout-4-blocks">
<rect id="Rectangle 7" x="217.429" y="5.67666" width="8.43267" height="8.42333" rx="1.5" fill="#6993FF"/>
<path id="Combined Shape_4" opacity="0.3" fill-rule="evenodd" clip-rule="evenodd" d="M228.271 7.17666C228.271 6.34823 228.943 5.67666 229.771 5.67666H235.204C236.032 5.67666 236.704 6.34823 236.704 7.17666V12.6C236.704 13.4284 236.032 14.1 235.204 14.1H229.771C228.943 14.1 228.271 13.4284 228.271 12.6V7.17666ZM217.429 18.0067C217.429 17.1782 218.101 16.5067 218.929 16.5067H224.362C225.19 16.5067 225.862 17.1782 225.862 18.0067V23.43C225.862 24.2584 225.19 24.93 224.362 24.93H218.929C218.101 24.93 217.429 24.2584 217.429 23.43V18.0067ZM229.771 16.5067C228.943 16.5067 228.271 17.1782 228.271 18.0067V23.43C228.271 24.2584 228.943 24.93 229.771 24.93H235.204C236.032 24.93 236.704 24.2584 236.704 23.43V18.0067C236.704 17.1782 236.032 16.5067 235.204 16.5067H229.771Z" fill="#6993FF"/>
</g>
</g>
</svg>
