<svg width="71" height="81" viewBox="0 0 71 81" fill="none" xmlns="http://www.w3.org/2000/svg">
<g id="Layout-4-blocks">
<rect id="Rectangle 7" x="12.0042" y="13.5" width="20.501" height="23.625" rx="1.5" fill="#B5B5C3"/>
<path id="Combined Shape" opacity="0.3" fill-rule="evenodd" clip-rule="evenodd" d="M38.3626 15C38.3626 14.1716 39.0342 13.5 39.8626 13.5H57.3637C58.1921 13.5 58.8637 14.1716 58.8637 15V35.625C58.8637 36.4534 58.1921 37.125 57.3637 37.125H39.8626C39.0342 37.125 38.3626 36.4534 38.3626 35.625V15ZM12.0042 45.375C12.0042 44.5466 12.6757 43.875 13.5042 43.875H31.0052C31.8336 43.875 32.5052 44.5466 32.5052 45.375V66C32.5052 66.8284 31.8336 67.5 31.0052 67.5H13.5041C12.6757 67.5 12.0042 66.8284 12.0042 66V45.375ZM39.8626 43.875C39.0342 43.875 38.3626 44.5466 38.3626 45.375V66C38.3626 66.8284 39.0342 67.5 39.8626 67.5H57.3637C58.1921 67.5 58.8637 66.8284 58.8637 66V45.375C58.8637 44.5466 58.1921 43.875 57.3637 43.875H39.8626Z" fill="#B5B5C3"/>
</g>
</svg>
