<svg width="85" height="81" viewBox="0 0 85 81" fill="none" xmlns="http://www.w3.org/2000/svg">
<g id="Library">
<path id="Combined Shape" fill-rule="evenodd" clip-rule="evenodd" d="M15.4387 10.125C14.8864 10.125 14.4387 10.5727 14.4387 11.125V69.875C14.4387 70.4273 14.8864 70.875 15.4387 70.875H23.9635C24.5158 70.875 24.9635 70.4273 24.9635 69.875V11.125C24.9635 10.5727 24.5158 10.125 23.9635 10.125H15.4387ZM32.98 10.125C32.4277 10.125 31.98 10.5727 31.98 11.125V69.875C31.98 70.4273 32.4277 70.875 32.98 70.875H41.5048C42.057 70.875 42.5048 70.4273 42.5048 69.875V11.125C42.5048 10.5727 42.057 10.125 41.5048 10.125H32.98Z" fill="#B5B5C3"/>
<rect id="Rectangle Copy 2" opacity="0.3" width="10.4831" height="61.0087" rx="1" transform="matrix(0.949275 -0.314446 0.336987 0.941509 47.687 13.2442)" fill="#B5B5C3"/>
</g>
</svg>
