<svg width="16" height="15" viewBox="0 0 21 20" fill="none" xmlns="http://www.w3.org/2000/svg">
<g id="Library">
<path id="Combined Shape" fill-rule="evenodd" clip-rule="evenodd" d="M4.71167 2.5C4.15939 2.5 3.71167 2.94772 3.71167 3.5V16.5C3.71167 17.0523 4.15938 17.5 4.71167 17.5H5.21167C5.76395 17.5 6.21167 17.0523 6.21167 16.5V3.5C6.21167 2.94772 5.76395 2.5 5.21167 2.5H4.71167ZM8.87833 2.5C8.32605 2.5 7.87833 2.94772 7.87833 3.5V16.5C7.87833 17.0523 8.32605 17.5 8.87833 17.5H9.37833C9.93062 17.5 10.3783 17.0523 10.3783 16.5V3.5C10.3783 2.94772 9.93062 2.5 9.37833 2.5H8.87833Z" fill="#8950FC"/>
<rect id="Rectangle Copy 2" opacity="0.3" x="11.6094" y="3.27017" width="2.5" height="15" rx="1" transform="rotate(-19 11.6094 3.27017)" fill="#8950FC"/>
</g>
</svg>
