<svg width="21" height="20" viewBox="0 0 21 20" fill="none" xmlns="http://www.w3.org/2000/svg">
<g id="Attachment#2">
<path id="Combined Shape" opacity="0.3" fill-rule="evenodd" clip-rule="evenodd" d="M8.61072 10.5892L6.84295 12.357C6.51751 12.6824 6.51752 13.2101 6.84295 13.5355C7.16839 13.861 7.69603 13.861 8.02146 13.5355L9.78923 11.7678L10.3785 12.357C11.0294 13.0079 11.0294 14.0632 10.3785 14.714L8.02146 17.0711C7.37059 17.7219 6.31531 17.7219 5.66444 17.0711L3.30742 14.714C2.65654 14.0632 2.65654 13.0079 3.30742 12.357L5.66444 9.99999C6.31531 9.34911 7.37059 9.34911 8.02146 9.99999L8.61072 10.5892Z" fill="#F64E60"/>
<path id="Combined Shape Copy" fill-rule="evenodd" clip-rule="evenodd" d="M12.1462 9.41076L13.914 7.64299C14.2394 7.31755 14.2394 6.78991 13.914 6.46448C13.5886 6.13904 13.0609 6.13904 12.7355 6.46448L10.9677 8.23224L10.3785 7.64299C9.72759 6.99212 9.72759 5.93684 10.3785 5.28597L12.7355 2.92894C13.3864 2.27807 14.4416 2.27807 15.0925 2.92894L17.4495 5.28597C18.1004 5.93684 18.1004 6.99211 17.4495 7.64299L15.0925 10C14.4416 10.6509 13.3864 10.6509 12.7355 10L12.1462 9.41076Z" fill="#F64E60"/>
<path id="Combined Shape_2" opacity="0.3" fill-rule="evenodd" clip-rule="evenodd" d="M3.89668 4.69669C3.57124 4.37125 3.57124 3.84361 3.89668 3.51818C4.22212 3.19274 4.74975 3.19274 5.07519 3.51818L6.2537 4.69669C6.57914 5.02212 6.57914 5.54976 6.2537 5.8752C5.92827 6.20063 5.40063 6.20063 5.07519 5.8752L3.89668 4.69669ZM7.33111 2.09559C7.33111 1.63535 7.70421 1.26225 8.16445 1.26225C8.62468 1.26225 8.99778 1.63535 8.99778 2.09559L8.99778 3.76225C8.99778 4.22249 8.62468 4.59559 8.16445 4.59559C7.70421 4.59559 7.33111 4.22249 7.33111 3.76225V2.09559ZM1.78374 7.64296C1.78374 7.18273 2.15683 6.80963 2.61707 6.80963L4.28374 6.80963C4.74397 6.80963 5.11707 7.18273 5.11707 7.64296C5.11707 8.1032 4.74397 8.4763 4.28374 8.4763L2.61707 8.4763C2.15683 8.4763 1.78374 8.1032 1.78374 7.64296Z" fill="#F64E60"/>
<path id="Combined Shape Copy 2" opacity="0.3" fill-rule="evenodd" clip-rule="evenodd" d="M15.5807 16.3807C15.9062 16.7062 16.4338 16.7062 16.7592 16.3807C17.0847 16.0553 17.0847 15.5277 16.7592 15.2022L15.5807 14.0237C15.2553 13.6983 14.7276 13.6983 14.4022 14.0237C14.0768 14.3491 14.0768 14.8768 14.4022 15.2022L15.5807 16.3807ZM18.1818 12.9463C18.6421 12.9463 19.0152 12.5732 19.0152 12.113C19.0152 11.6527 18.6421 11.2796 18.1818 11.2796L16.5152 11.2796C16.0549 11.2796 15.6818 11.6527 15.6818 12.113C15.6818 12.5732 16.0549 12.9463 16.5152 12.9463L18.1818 12.9463ZM12.6344 18.4937C13.0947 18.4937 13.4678 18.1206 13.4678 17.6603V15.9937C13.4678 15.5334 13.0947 15.1603 12.6344 15.1603C12.1742 15.1603 11.8011 15.5334 11.8011 15.9937L11.8011 17.6603C11.8011 18.1206 12.1742 18.4937 12.6344 18.4937Z" fill="#F64E60"/>
</g>
</svg>
