<svg width="21" height="20" viewBox="0 0 21 20" fill="none" xmlns="http://www.w3.org/2000/svg">
<g id="Mic">
<path id="Combined Shape" fill-rule="evenodd" clip-rule="evenodd" d="M10.3785 13.3333C8.07731 13.3333 6.21183 11.4678 6.21183 9.16666H4.54517C4.54517 12.1061 6.7193 14.5377 9.54721 14.9412C9.54585 14.9606 9.54517 14.9802 9.54517 15V17.5C9.54517 17.9602 9.91826 18.3333 10.3785 18.3333C10.8387 18.3333 11.2118 17.9602 11.2118 17.5V15C11.2118 14.9802 11.2111 14.9606 11.2098 14.9412C14.0377 14.5377 16.2118 12.1061 16.2118 9.16666H14.5452C14.5452 11.4678 12.6797 13.3333 10.3785 13.3333Z" fill="#FFA800"/>
<rect id="Rectangle" opacity="0.3" x="7.87842" y="1.66666" width="5" height="10" rx="2.5" fill="#FFA800"/>
</g>
</svg>
