<svg width="99" height="71" viewBox="0 0 99 71" fill="none" xmlns="http://www.w3.org/2000/svg">
<g id="Movie-lane#2">
<path id="Combined Shape" opacity="0.3" fill-rule="evenodd" clip-rule="evenodd" d="M16.6313 10.875C16.6313 9.77043 17.5268 8.875 18.6313 8.875H80.4788C81.5834 8.875 82.4788 9.77043 82.4788 10.875V60.125C82.4788 61.2296 81.5834 62.125 80.4788 62.125H18.6313C17.5268 62.125 16.6313 61.2296 16.6313 60.125V10.875ZM20.7468 15.2917C20.7468 15.0155 20.9707 14.7917 21.2468 14.7917H28.4777C28.7539 14.7917 28.9777 15.0155 28.9777 15.2917V20.2083C28.9777 20.4845 28.7539 20.7083 28.4777 20.7083H21.2468C20.9707 20.7083 20.7468 20.4845 20.7468 20.2083V15.2917ZM70.6324 14.7917C70.3563 14.7917 70.1324 15.0155 70.1324 15.2917V20.2083C70.1324 20.4845 70.3563 20.7083 70.6324 20.7083H77.8633C78.1395 20.7083 78.3633 20.4845 78.3633 20.2083V15.2917C78.3633 15.0155 78.1395 14.7917 77.8633 14.7917H70.6324ZM20.7468 27.125C20.7468 26.8489 20.9707 26.625 21.2468 26.625H28.4777C28.7539 26.625 28.9777 26.8489 28.9777 27.125V32.0417C28.9777 32.3178 28.7539 32.5417 28.4777 32.5417H21.2468C20.9707 32.5417 20.7468 32.3178 20.7468 32.0417V27.125ZM70.6324 26.625C70.3563 26.625 70.1324 26.8489 70.1324 27.125V32.0417C70.1324 32.3178 70.3563 32.5417 70.6324 32.5417H77.8633C78.1395 32.5417 78.3633 32.3178 78.3633 32.0417V27.125C78.3633 26.8489 78.1395 26.625 77.8633 26.625H70.6324ZM20.7468 38.9583C20.7468 38.6822 20.9707 38.4583 21.2468 38.4583H28.4777C28.7539 38.4583 28.9777 38.6822 28.9777 38.9583V43.875C28.9777 44.1511 28.7539 44.375 28.4777 44.375H21.2468C20.9707 44.375 20.7468 44.1511 20.7468 43.875V38.9583ZM70.6324 38.4583C70.3563 38.4583 70.1324 38.6822 70.1324 38.9583V43.875C70.1324 44.1511 70.3563 44.375 70.6324 44.375H77.8633C78.1395 44.375 78.3633 44.1511 78.3633 43.875V38.9583C78.3633 38.6822 78.1395 38.4583 77.8633 38.4583H70.6324ZM70.1324 50.7917C70.1324 50.5155 70.3563 50.2917 70.6324 50.2917H77.8633C78.1395 50.2917 78.3633 50.5155 78.3633 50.7917V55.7083C78.3633 55.9845 78.1395 56.2083 77.8633 56.2083H70.6324C70.3563 56.2083 70.1324 55.9845 70.1324 55.7083V50.7917ZM21.2468 50.2917C20.9707 50.2917 20.7468 50.5155 20.7468 50.7917V55.7083C20.7468 55.9845 20.9707 56.2083 21.2468 56.2083H28.4777C28.7539 56.2083 28.9777 55.9845 28.9777 55.7083V50.7917C28.9777 50.5155 28.7539 50.2917 28.4777 50.2917H21.2468Z" fill="white"/>
<path id="Path 10" fill-rule="evenodd" clip-rule="evenodd" d="M43.6699 43.8885C43.6699 44.2587 44.0582 44.5005 44.3904 44.3372L59.1754 37.0725C59.5475 36.8896 59.5482 36.3593 59.1765 36.1755L44.3915 28.8649C44.0592 28.7006 43.6699 28.9424 43.6699 29.3131V43.8885Z" fill="white"/>
</g>
</svg>
