<svg width="96" height="75" viewBox="0 0 96 75" fill="none" xmlns="http://www.w3.org/2000/svg">
<g id="Shield-check">
<path id="Path 50" opacity="0.3" fill-rule="evenodd" clip-rule="evenodd" d="M15.8691 12.5L47.2345 7.85588C47.4287 7.82712 47.6261 7.82712 47.8204 7.85588L79.1857 12.5V49.4123C79.1857 53.5992 76.8087 57.4232 73.0541 59.2763L47.97 71.6566C47.691 71.7943 47.3638 71.7943 47.0849 71.6566L22.0007 59.2763C18.2461 57.4232 15.8691 53.5992 15.8691 49.4123L15.8691 12.5Z" fill="#B5B5C3"/>
<path id="check-path" fill-rule="evenodd" clip-rule="evenodd" d="M44.2625 46.0938C43.3144 46.0938 42.3663 45.7943 41.6078 45.1953L34.023 39.2057C32.506 38.0078 32.506 36.2109 34.023 35.013C35.5399 33.8151 38.005 33.8151 39.3323 35.013L44.2625 38.9062L56.7774 29.0234C58.2943 27.8255 60.5698 27.8255 62.0867 29.0234C63.6037 30.2214 63.6037 32.0182 62.0867 33.2161L46.9171 45.1953C46.1587 45.7943 45.2106 46.0938 44.2625 46.0938Z" fill="#B5B5C3"/>
</g>
</svg>
