<svg width="629" height="242" viewBox="0 0 629 242" fill="none" xmlns="http://www.w3.org/2000/svg">
<g clip-path="url(#clip0_200_2813)">
<rect x="0.763428" width="628" height="242" rx="12" fill="#F64E60"/>
<path d="M120.236 123.5C72.9297 98.049 45.1623 98.1844 -6.73657 123.5V301.5H634.763V123.5C617.266 113.46 608.068 114.18 592.439 123.5L549.285 149.5C519.651 167.628 502.076 167.374 468.787 149.5L406.545 112C374.648 96.1261 357.71 96.5327 329.366 112L275.424 144.5C231.127 171.549 204.993 173.657 155.091 144.5L120.236 123.5Z" fill="#F54759" stroke="#D13647" stroke-width="3"/>
<path d="M-6.73657 129.5C45.1623 104.184 72.9297 104.049 120.236 129.5L155.091 150.5C204.993 179.657 231.127 177.549 275.424 150.5L329.366 118C357.71 102.533 374.648 102.126 406.545 118L468.787 155.5C502.076 173.374 519.651 173.628 549.285 155.5L592.439 129.5C608.068 120.18 617.266 119.46 634.763 129.5" stroke="#952B37" stroke-opacity="0.1" stroke-width="4"/>
</g>
<defs>
<clipPath id="clip0_200_2813">
<rect x="0.763428" width="628" height="242" rx="12" fill="white"/>
</clipPath>
</defs>
</svg>
