<svg width="629" height="342" viewBox="0 0 629 342" fill="none" xmlns="http://www.w3.org/2000/svg">
<rect x="0.763428" width="628.134" height="342" rx="12" fill="white"/>
<rect x="0.763428" y="0.723038" width="628.134" height="341.277" rx="12" fill="white"/>
<g clip-path="url(#clip0_200_2811)">
<rect x="0.763428" y="1" width="628" height="242" rx="12" fill="#F64E60"/>
<path d="M120.236 124.5C72.9297 99.049 45.1623 99.1844 -6.73657 124.5V302.5H634.763V124.5C617.266 114.46 608.068 115.18 592.439 124.5L549.285 150.5C519.651 168.628 502.076 168.374 468.787 150.5L406.545 113C374.648 97.1261 357.71 97.5327 329.366 113L275.424 145.5C231.127 172.549 204.993 174.657 155.091 145.5L120.236 124.5Z" fill="#F54759" stroke="#D13647" stroke-width="3"/>
<path d="M-6.73657 130.5C45.1623 105.184 72.9297 105.049 120.236 130.5L155.091 151.5C204.993 180.657 231.127 178.549 275.424 151.5L329.366 119C357.71 103.533 374.648 103.126 406.545 119L468.787 156.5C502.076 174.374 519.651 174.628 549.285 156.5L592.439 130.5C608.068 121.18 617.266 120.46 634.763 130.5" stroke="#952B37" stroke-opacity="0.1" stroke-width="4"/>
</g>
<defs>
<clipPath id="clip0_200_2811">
<rect x="0.763428" y="1" width="628" height="242" rx="12" fill="white"/>
</clipPath>
</defs>
</svg>
