<svg width="1320" height="472" viewBox="0 0 1320 472" fill="none" xmlns="http://www.w3.org/2000/svg">
<rect x="0.763428" width="1319" height="472" rx="12" fill="white"/>
<line x1="142.968" y1="113.5" x2="1228.8" y2="113.5" stroke="#EAEAEA" stroke-dasharray="3 4"/>
<line x1="142.968" y1="173.5" x2="1228.8" y2="173.5" stroke="#EAEAEA" stroke-dasharray="3 4"/>
<line x1="142.968" y1="233.5" x2="1228.8" y2="233.5" stroke="#EAEAEA" stroke-dasharray="3 4"/>
<line x1="142.968" y1="293.5" x2="1228.8" y2="293.5" stroke="#EAEAEA" stroke-dasharray="3 4"/>
<line x1="142.968" y1="353.5" x2="1228.8" y2="353.5" stroke="#EAEAEA" stroke-dasharray="3 4"/>
<line x1="142.968" y1="413.5" x2="1228.8" y2="413.5" stroke="#EAEAEA" stroke-dasharray="3 4"/>
<path d="M240.204 431.5V430.252H242.7V439H241.32V431.5H240.204ZM252.905 437.296H249.413L248.813 439H247.385L250.373 430.648H251.957L254.945 439H253.505L252.905 437.296ZM252.521 436.18L251.165 432.304L249.797 436.18H252.521ZM262.232 432.388V439H260.864V438.22C260.648 438.492 260.364 438.708 260.012 438.868C259.668 439.02 259.3 439.096 258.908 439.096C258.388 439.096 257.92 438.988 257.504 438.772C257.096 438.556 256.772 438.236 256.532 437.812C256.3 437.388 256.184 436.876 256.184 436.276V432.388H257.54V436.072C257.54 436.664 257.688 437.12 257.984 437.44C258.28 437.752 258.684 437.908 259.196 437.908C259.708 437.908 260.112 437.752 260.408 437.44C260.712 437.12 260.864 436.664 260.864 436.072V432.388H262.232ZM266.701 432.28C267.213 432.28 267.665 432.384 268.057 432.592C268.457 432.792 268.769 433.044 268.993 433.348V432.388H270.373V439.108C270.373 439.716 270.245 440.256 269.989 440.728C269.733 441.208 269.361 441.584 268.873 441.856C268.393 442.128 267.817 442.264 267.145 442.264C266.249 442.264 265.505 442.052 264.913 441.628C264.321 441.212 263.985 440.644 263.905 439.924H265.261C265.365 440.268 265.585 440.544 265.921 440.752C266.265 440.968 266.673 441.076 267.145 441.076C267.697 441.076 268.141 440.908 268.477 440.572C268.821 440.236 268.993 439.748 268.993 439.108V438.004C268.761 438.316 268.445 438.58 268.045 438.796C267.653 439.004 267.205 439.108 266.701 439.108C266.125 439.108 265.597 438.964 265.117 438.676C264.645 438.38 264.269 437.972 263.989 437.452C263.717 436.924 263.581 436.328 263.581 435.664C263.581 435 263.717 434.412 263.989 433.9C264.269 433.388 264.645 432.992 265.117 432.712C265.597 432.424 266.125 432.28 266.701 432.28ZM268.993 435.688C268.993 435.232 268.897 434.836 268.705 434.5C268.521 434.164 268.277 433.908 267.973 433.732C267.669 433.556 267.341 433.468 266.989 433.468C266.637 433.468 266.309 433.556 266.005 433.732C265.701 433.9 265.453 434.152 265.261 434.488C265.077 434.816 264.985 435.208 264.985 435.664C264.985 436.12 265.077 436.52 265.261 436.864C265.453 437.208 265.701 437.472 266.005 437.656C266.317 437.832 266.645 437.92 266.989 437.92C267.341 437.92 267.669 437.832 267.973 437.656C268.277 437.48 268.521 437.224 268.705 436.888C268.897 436.544 268.993 436.144 268.993 435.688Z" fill="#B5B5C3"/>
<path d="M417.514 434.428C416.682 434.012 416.266 433.356 416.266 432.46C416.266 432.028 416.374 431.632 416.59 431.272C416.806 430.912 417.13 430.628 417.562 430.42C417.994 430.204 418.522 430.096 419.146 430.096C419.762 430.096 420.286 430.204 420.718 430.42C421.158 430.628 421.486 430.912 421.702 431.272C421.918 431.632 422.026 432.028 422.026 432.46C422.026 432.908 421.91 433.304 421.678 433.648C421.454 433.984 421.154 434.244 420.778 434.428C421.234 434.596 421.594 434.872 421.858 435.256C422.122 435.632 422.254 436.076 422.254 436.588C422.254 437.108 422.122 437.568 421.858 437.968C421.594 438.368 421.226 438.676 420.754 438.892C420.282 439.108 419.746 439.216 419.146 439.216C418.546 439.216 418.01 439.108 417.538 438.892C417.074 438.676 416.71 438.368 416.446 437.968C416.182 437.568 416.05 437.108 416.05 436.588C416.05 436.068 416.182 435.62 416.446 435.244C416.71 434.868 417.066 434.596 417.514 434.428ZM420.718 432.628C420.718 432.18 420.578 431.836 420.298 431.596C420.018 431.356 419.634 431.236 419.146 431.236C418.666 431.236 418.286 431.356 418.006 431.596C417.726 431.836 417.586 432.184 417.586 432.64C417.586 433.04 417.73 433.368 418.018 433.624C418.314 433.872 418.69 433.996 419.146 433.996C419.602 433.996 419.978 433.868 420.274 433.612C420.57 433.356 420.718 433.028 420.718 432.628ZM419.146 435.028C418.618 435.028 418.186 435.16 417.85 435.424C417.522 435.68 417.358 436.052 417.358 436.54C417.358 436.996 417.518 437.368 417.838 437.656C418.158 437.936 418.594 438.076 419.146 438.076C419.69 438.076 420.118 437.932 420.43 437.644C420.75 437.356 420.91 436.988 420.91 436.54C420.91 436.06 420.746 435.688 420.418 435.424C420.098 435.16 419.674 435.028 419.146 435.028ZM432.016 437.296H428.524L427.924 439H426.496L429.484 430.648H431.068L434.056 439H432.616L432.016 437.296ZM431.632 436.18L430.276 432.304L428.908 436.18H431.632ZM441.343 432.388V439H439.975V438.22C439.759 438.492 439.475 438.708 439.123 438.868C438.779 439.02 438.411 439.096 438.019 439.096C437.499 439.096 437.031 438.988 436.615 438.772C436.207 438.556 435.883 438.236 435.643 437.812C435.411 437.388 435.295 436.876 435.295 436.276V432.388H436.651V436.072C436.651 436.664 436.799 437.12 437.095 437.44C437.391 437.752 437.795 437.908 438.307 437.908C438.819 437.908 439.223 437.752 439.519 437.44C439.823 437.12 439.975 436.664 439.975 436.072V432.388H441.343ZM445.812 432.28C446.324 432.28 446.776 432.384 447.168 432.592C447.568 432.792 447.88 433.044 448.104 433.348V432.388H449.484V439.108C449.484 439.716 449.356 440.256 449.1 440.728C448.844 441.208 448.472 441.584 447.984 441.856C447.504 442.128 446.928 442.264 446.256 442.264C445.36 442.264 444.616 442.052 444.024 441.628C443.432 441.212 443.096 440.644 443.016 439.924H444.372C444.476 440.268 444.696 440.544 445.032 440.752C445.376 440.968 445.784 441.076 446.256 441.076C446.808 441.076 447.252 440.908 447.588 440.572C447.932 440.236 448.104 439.748 448.104 439.108V438.004C447.872 438.316 447.556 438.58 447.156 438.796C446.764 439.004 446.316 439.108 445.812 439.108C445.236 439.108 444.708 438.964 444.228 438.676C443.756 438.38 443.38 437.972 443.1 437.452C442.828 436.924 442.692 436.328 442.692 435.664C442.692 435 442.828 434.412 443.1 433.9C443.38 433.388 443.756 432.992 444.228 432.712C444.708 432.424 445.236 432.28 445.812 432.28ZM448.104 435.688C448.104 435.232 448.008 434.836 447.816 434.5C447.632 434.164 447.388 433.908 447.084 433.732C446.78 433.556 446.452 433.468 446.1 433.468C445.748 433.468 445.42 433.556 445.116 433.732C444.812 433.9 444.564 434.152 444.372 434.488C444.188 434.816 444.096 435.208 444.096 435.664C444.096 436.12 444.188 436.52 444.372 436.864C444.564 437.208 444.812 437.472 445.116 437.656C445.428 437.832 445.756 437.92 446.1 437.92C446.452 437.92 446.78 437.832 447.084 437.656C447.388 437.48 447.632 437.224 447.816 436.888C448.008 436.544 448.104 436.144 448.104 435.688Z" fill="#B5B5C3"/>
<path d="M589.04 431.5V430.252H591.536V439H590.156V431.5H589.04ZM599.055 431.428H595.035V433.816C595.203 433.592 595.451 433.404 595.779 433.252C596.115 433.1 596.471 433.024 596.847 433.024C597.519 433.024 598.063 433.168 598.479 433.456C598.903 433.744 599.203 434.108 599.379 434.548C599.563 434.988 599.655 435.452 599.655 435.94C599.655 436.532 599.539 437.06 599.307 437.524C599.083 437.98 598.743 438.34 598.287 438.604C597.839 438.868 597.287 439 596.631 439C595.759 439 595.059 438.784 594.531 438.352C594.003 437.92 593.687 437.348 593.583 436.636H594.915C595.003 437.012 595.199 437.312 595.503 437.536C595.807 437.752 596.187 437.86 596.643 437.86C597.211 437.86 597.635 437.688 597.915 437.344C598.203 437 598.347 436.544 598.347 435.976C598.347 435.4 598.203 434.96 597.915 434.656C597.627 434.344 597.203 434.188 596.643 434.188C596.251 434.188 595.919 434.288 595.647 434.488C595.383 434.68 595.191 434.944 595.071 435.28H593.775V430.228H599.055V431.428ZM600.899 431.5V430.252H603.395V439H602.015V431.5H600.899ZM613.6 437.296H610.108L609.508 439H608.08L611.068 430.648H612.652L615.64 439H614.2L613.6 437.296ZM613.216 436.18L611.86 432.304L610.492 436.18H613.216ZM622.927 432.388V439H621.559V438.22C621.343 438.492 621.059 438.708 620.707 438.868C620.363 439.02 619.995 439.096 619.603 439.096C619.083 439.096 618.615 438.988 618.199 438.772C617.791 438.556 617.467 438.236 617.227 437.812C616.995 437.388 616.879 436.876 616.879 436.276V432.388H618.235V436.072C618.235 436.664 618.383 437.12 618.679 437.44C618.975 437.752 619.379 437.908 619.891 437.908C620.403 437.908 620.807 437.752 621.103 437.44C621.407 437.12 621.559 436.664 621.559 436.072V432.388H622.927ZM627.396 432.28C627.908 432.28 628.36 432.384 628.752 432.592C629.152 432.792 629.464 433.044 629.688 433.348V432.388H631.068V439.108C631.068 439.716 630.94 440.256 630.684 440.728C630.428 441.208 630.056 441.584 629.568 441.856C629.088 442.128 628.512 442.264 627.84 442.264C626.944 442.264 626.2 442.052 625.608 441.628C625.016 441.212 624.68 440.644 624.6 439.924H625.956C626.06 440.268 626.28 440.544 626.616 440.752C626.96 440.968 627.368 441.076 627.84 441.076C628.392 441.076 628.836 440.908 629.172 440.572C629.516 440.236 629.688 439.748 629.688 439.108V438.004C629.456 438.316 629.14 438.58 628.74 438.796C628.348 439.004 627.9 439.108 627.396 439.108C626.82 439.108 626.292 438.964 625.812 438.676C625.34 438.38 624.964 437.972 624.684 437.452C624.412 436.924 624.276 436.328 624.276 435.664C624.276 435 624.412 434.412 624.684 433.9C624.964 433.388 625.34 432.992 625.812 432.712C626.292 432.424 626.82 432.28 627.396 432.28ZM629.688 435.688C629.688 435.232 629.592 434.836 629.4 434.5C629.216 434.164 628.972 433.908 628.668 433.732C628.364 433.556 628.036 433.468 627.684 433.468C627.332 433.468 627.004 433.556 626.7 433.732C626.396 433.9 626.148 434.152 625.956 434.488C625.772 434.816 625.68 435.208 625.68 435.664C625.68 436.12 625.772 436.52 625.956 436.864C626.148 437.208 626.396 437.472 626.7 437.656C627.012 437.832 627.34 437.92 627.684 437.92C628.036 437.92 628.364 437.832 628.668 437.656C628.972 437.48 629.216 437.224 629.4 436.888C629.592 436.544 629.688 436.144 629.688 435.688Z" fill="#B5B5C3"/>
<path d="M768.46 437.14C769.228 436.476 769.832 435.932 770.272 435.508C770.72 435.076 771.092 434.628 771.388 434.164C771.684 433.7 771.832 433.236 771.832 432.772C771.832 432.292 771.716 431.916 771.484 431.644C771.26 431.372 770.904 431.236 770.416 431.236C769.944 431.236 769.576 431.388 769.312 431.692C769.056 431.988 768.92 432.388 768.904 432.892H767.584C767.608 431.98 767.88 431.284 768.4 430.804C768.928 430.316 769.596 430.072 770.404 430.072C771.276 430.072 771.956 430.312 772.444 430.792C772.94 431.272 773.188 431.912 773.188 432.712C773.188 433.288 773.04 433.844 772.744 434.38C772.456 434.908 772.108 435.384 771.7 435.808C771.3 436.224 770.788 436.708 770.164 437.26L769.624 437.74H773.428V438.88H767.596V437.884L768.46 437.14ZM775.386 437.14C776.154 436.476 776.758 435.932 777.198 435.508C777.646 435.076 778.018 434.628 778.314 434.164C778.61 433.7 778.758 433.236 778.758 432.772C778.758 432.292 778.642 431.916 778.41 431.644C778.186 431.372 777.83 431.236 777.342 431.236C776.87 431.236 776.502 431.388 776.238 431.692C775.982 431.988 775.846 432.388 775.83 432.892H774.51C774.534 431.98 774.806 431.284 775.326 430.804C775.854 430.316 776.522 430.072 777.33 430.072C778.202 430.072 778.882 430.312 779.37 430.792C779.866 431.272 780.114 431.912 780.114 432.712C780.114 433.288 779.966 433.844 779.67 434.38C779.382 434.908 779.034 435.384 778.626 435.808C778.226 436.224 777.714 436.708 777.09 437.26L776.55 437.74H780.354V438.88H774.522V437.884L775.386 437.14ZM789.881 437.296H786.389L785.789 439H784.361L787.349 430.648H788.933L791.921 439H790.481L789.881 437.296ZM789.497 436.18L788.141 432.304L786.773 436.18H789.497ZM799.208 432.388V439H797.84V438.22C797.624 438.492 797.34 438.708 796.988 438.868C796.644 439.02 796.276 439.096 795.884 439.096C795.364 439.096 794.896 438.988 794.48 438.772C794.072 438.556 793.748 438.236 793.508 437.812C793.276 437.388 793.16 436.876 793.16 436.276V432.388H794.516V436.072C794.516 436.664 794.664 437.12 794.96 437.44C795.256 437.752 795.66 437.908 796.172 437.908C796.684 437.908 797.088 437.752 797.384 437.44C797.688 437.12 797.84 436.664 797.84 436.072V432.388H799.208ZM803.677 432.28C804.189 432.28 804.641 432.384 805.033 432.592C805.433 432.792 805.745 433.044 805.969 433.348V432.388H807.349V439.108C807.349 439.716 807.221 440.256 806.965 440.728C806.709 441.208 806.337 441.584 805.849 441.856C805.369 442.128 804.793 442.264 804.121 442.264C803.225 442.264 802.481 442.052 801.889 441.628C801.297 441.212 800.961 440.644 800.881 439.924H802.237C802.341 440.268 802.561 440.544 802.897 440.752C803.241 440.968 803.649 441.076 804.121 441.076C804.673 441.076 805.117 440.908 805.453 440.572C805.797 440.236 805.969 439.748 805.969 439.108V438.004C805.737 438.316 805.421 438.58 805.021 438.796C804.629 439.004 804.181 439.108 803.677 439.108C803.101 439.108 802.573 438.964 802.093 438.676C801.621 438.38 801.245 437.972 800.965 437.452C800.693 436.924 800.557 436.328 800.557 435.664C800.557 435 800.693 434.412 800.965 433.9C801.245 433.388 801.621 432.992 802.093 432.712C802.573 432.424 803.101 432.28 803.677 432.28ZM805.969 435.688C805.969 435.232 805.873 434.836 805.681 434.5C805.497 434.164 805.253 433.908 804.949 433.732C804.645 433.556 804.317 433.468 803.965 433.468C803.613 433.468 803.285 433.556 802.981 433.732C802.677 433.9 802.429 434.152 802.237 434.488C802.053 434.816 801.961 435.208 801.961 435.664C801.961 436.12 802.053 436.52 802.237 436.864C802.429 437.208 802.677 437.472 802.981 437.656C803.293 437.832 803.621 437.92 803.965 437.92C804.317 437.92 804.645 437.832 804.949 437.656C805.253 437.48 805.497 437.224 805.681 436.888C805.873 436.544 805.969 436.144 805.969 435.688Z" fill="#B5B5C3"/>
<path d="M945.497 437.14C946.265 436.476 946.869 435.932 947.309 435.508C947.757 435.076 948.129 434.628 948.425 434.164C948.721 433.7 948.869 433.236 948.869 432.772C948.869 432.292 948.753 431.916 948.521 431.644C948.297 431.372 947.941 431.236 947.453 431.236C946.981 431.236 946.613 431.388 946.349 431.692C946.093 431.988 945.957 432.388 945.941 432.892H944.621C944.645 431.98 944.917 431.284 945.437 430.804C945.965 430.316 946.633 430.072 947.441 430.072C948.313 430.072 948.993 430.312 949.481 430.792C949.977 431.272 950.225 431.912 950.225 432.712C950.225 433.288 950.077 433.844 949.781 434.38C949.493 434.908 949.145 435.384 948.737 435.808C948.337 436.224 947.825 436.708 947.201 437.26L946.661 437.74H950.465V438.88H944.633V437.884L945.497 437.14ZM953.371 436.624C953.451 437.024 953.623 437.328 953.887 437.536C954.151 437.744 954.507 437.848 954.955 437.848C955.523 437.848 955.939 437.624 956.203 437.176C956.467 436.728 956.599 435.964 956.599 434.884C956.407 435.156 956.135 435.368 955.783 435.52C955.439 435.664 955.063 435.736 954.655 435.736C954.135 435.736 953.663 435.632 953.239 435.424C952.815 435.208 952.479 434.892 952.231 434.476C951.991 434.052 951.871 433.54 951.871 432.94C951.871 432.06 952.127 431.36 952.639 430.84C953.159 430.312 953.871 430.048 954.775 430.048C955.863 430.048 956.635 430.412 957.091 431.14C957.555 431.86 957.787 432.968 957.787 434.464C957.787 435.496 957.699 436.34 957.523 436.996C957.355 437.652 957.059 438.148 956.635 438.484C956.211 438.82 955.623 438.988 954.871 438.988C954.015 438.988 953.355 438.764 952.891 438.316C952.427 437.868 952.167 437.304 952.111 436.624H953.371ZM954.895 434.584C955.375 434.584 955.751 434.436 956.023 434.14C956.303 433.836 956.443 433.436 956.443 432.94C956.443 432.388 956.295 431.96 955.999 431.656C955.711 431.344 955.315 431.188 954.811 431.188C954.307 431.188 953.907 431.348 953.611 431.668C953.323 431.98 953.179 432.392 953.179 432.904C953.179 433.392 953.319 433.796 953.599 434.116C953.887 434.428 954.319 434.584 954.895 434.584ZM967.609 437.296H964.117L963.517 439H962.089L965.077 430.648H966.661L969.649 439H968.209L967.609 437.296ZM967.225 436.18L965.869 432.304L964.501 436.18H967.225ZM976.937 432.388V439H975.569V438.22C975.353 438.492 975.069 438.708 974.717 438.868C974.373 439.02 974.005 439.096 973.613 439.096C973.093 439.096 972.625 438.988 972.209 438.772C971.801 438.556 971.477 438.236 971.237 437.812C971.005 437.388 970.889 436.876 970.889 436.276V432.388H972.245V436.072C972.245 436.664 972.393 437.12 972.689 437.44C972.985 437.752 973.389 437.908 973.901 437.908C974.413 437.908 974.817 437.752 975.113 437.44C975.417 437.12 975.569 436.664 975.569 436.072V432.388H976.937ZM981.406 432.28C981.918 432.28 982.37 432.384 982.762 432.592C983.162 432.792 983.474 433.044 983.698 433.348V432.388H985.078V439.108C985.078 439.716 984.95 440.256 984.694 440.728C984.438 441.208 984.066 441.584 983.578 441.856C983.098 442.128 982.522 442.264 981.85 442.264C980.954 442.264 980.21 442.052 979.618 441.628C979.026 441.212 978.69 440.644 978.61 439.924H979.966C980.07 440.268 980.29 440.544 980.626 440.752C980.97 440.968 981.378 441.076 981.85 441.076C982.402 441.076 982.846 440.908 983.182 440.572C983.526 440.236 983.698 439.748 983.698 439.108V438.004C983.466 438.316 983.15 438.58 982.75 438.796C982.358 439.004 981.91 439.108 981.406 439.108C980.83 439.108 980.302 438.964 979.822 438.676C979.35 438.38 978.974 437.972 978.694 437.452C978.422 436.924 978.286 436.328 978.286 435.664C978.286 435 978.422 434.412 978.694 433.9C978.974 433.388 979.35 432.992 979.822 432.712C980.302 432.424 980.83 432.28 981.406 432.28ZM983.698 435.688C983.698 435.232 983.602 434.836 983.41 434.5C983.226 434.164 982.982 433.908 982.678 433.732C982.374 433.556 982.046 433.468 981.694 433.468C981.342 433.468 981.014 433.556 980.71 433.732C980.406 433.9 980.158 434.152 979.966 434.488C979.782 434.816 979.69 435.208 979.69 435.664C979.69 436.12 979.782 436.52 979.966 436.864C980.158 437.208 980.406 437.472 980.71 437.656C981.022 437.832 981.35 437.92 981.694 437.92C982.046 437.92 982.374 437.832 982.678 437.656C982.982 437.48 983.226 437.224 983.41 436.888C983.602 436.544 983.698 436.144 983.698 435.688Z" fill="#B5B5C3"/>
<path d="M1129.69 431.428H1125.67V433.816C1125.83 433.592 1126.08 433.404 1126.41 433.252C1126.75 433.1 1127.1 433.024 1127.48 433.024C1128.15 433.024 1128.69 433.168 1129.11 433.456C1129.53 433.744 1129.83 434.108 1130.01 434.548C1130.19 434.988 1130.29 435.452 1130.29 435.94C1130.29 436.532 1130.17 437.06 1129.94 437.524C1129.71 437.98 1129.37 438.34 1128.92 438.604C1128.47 438.868 1127.92 439 1127.26 439C1126.39 439 1125.69 438.784 1125.16 438.352C1124.63 437.92 1124.32 437.348 1124.21 436.636H1125.55C1125.63 437.012 1125.83 437.312 1126.13 437.536C1126.44 437.752 1126.82 437.86 1127.27 437.86C1127.84 437.86 1128.27 437.688 1128.55 437.344C1128.83 437 1128.98 436.544 1128.98 435.976C1128.98 435.4 1128.83 434.96 1128.55 434.656C1128.26 434.344 1127.83 434.188 1127.27 434.188C1126.88 434.188 1126.55 434.288 1126.28 434.488C1126.01 434.68 1125.82 434.944 1125.7 435.28H1124.41V430.228H1129.69V431.428ZM1137.75 439.084C1137.19 439.084 1136.69 438.988 1136.24 438.796C1135.79 438.596 1135.44 438.316 1135.19 437.956C1134.93 437.596 1134.8 437.176 1134.8 436.696H1136.27C1136.3 437.056 1136.44 437.352 1136.69 437.584C1136.94 437.816 1137.3 437.932 1137.75 437.932C1138.23 437.932 1138.59 437.82 1138.86 437.596C1139.12 437.364 1139.25 437.068 1139.25 436.708C1139.25 436.428 1139.17 436.2 1139 436.024C1138.84 435.848 1138.64 435.712 1138.39 435.616C1138.15 435.52 1137.81 435.416 1137.38 435.304C1136.84 435.16 1136.39 435.016 1136.05 434.872C1135.71 434.72 1135.43 434.488 1135.19 434.176C1134.95 433.864 1134.83 433.448 1134.83 432.928C1134.83 432.448 1134.95 432.028 1135.19 431.668C1135.43 431.308 1135.76 431.032 1136.19 430.84C1136.63 430.648 1137.13 430.552 1137.69 430.552C1138.5 430.552 1139.16 430.756 1139.67 431.164C1140.19 431.564 1140.48 432.116 1140.54 432.82H1139.03C1139 432.516 1138.86 432.256 1138.59 432.04C1138.33 431.824 1137.98 431.716 1137.55 431.716C1137.16 431.716 1136.84 431.816 1136.59 432.016C1136.34 432.216 1136.22 432.504 1136.22 432.88C1136.22 433.136 1136.29 433.348 1136.45 433.516C1136.61 433.676 1136.81 433.804 1137.05 433.9C1137.29 433.996 1137.61 434.1 1138.03 434.212C1138.58 434.364 1139.03 434.516 1139.37 434.668C1139.73 434.82 1140.02 435.056 1140.26 435.376C1140.51 435.688 1140.63 436.108 1140.63 436.636C1140.63 437.06 1140.52 437.46 1140.29 437.836C1140.06 438.212 1139.73 438.516 1139.29 438.748C1138.86 438.972 1138.35 439.084 1137.75 439.084ZM1148.31 435.532C1148.31 435.78 1148.29 436.004 1148.26 436.204H1143.21C1143.25 436.732 1143.44 437.156 1143.8 437.476C1144.15 437.796 1144.58 437.956 1145.09 437.956C1145.83 437.956 1146.35 437.648 1146.65 437.032H1148.13C1147.93 437.64 1147.56 438.14 1147.04 438.532C1146.52 438.916 1145.87 439.108 1145.09 439.108C1144.46 439.108 1143.89 438.968 1143.39 438.688C1142.89 438.4 1142.5 438 1142.21 437.488C1141.93 436.968 1141.79 436.368 1141.79 435.688C1141.79 435.008 1141.93 434.412 1142.2 433.9C1142.48 433.38 1142.87 432.98 1143.36 432.7C1143.87 432.42 1144.44 432.28 1145.09 432.28C1145.72 432.28 1146.27 432.416 1146.76 432.688C1147.25 432.96 1147.63 433.344 1147.9 433.84C1148.17 434.328 1148.31 434.892 1148.31 435.532ZM1146.88 435.1C1146.87 434.596 1146.69 434.192 1146.34 433.888C1145.99 433.584 1145.55 433.432 1145.03 433.432C1144.56 433.432 1144.16 433.584 1143.82 433.888C1143.48 434.184 1143.28 434.588 1143.22 435.1H1146.88ZM1151.02 433.36C1151.26 433.056 1151.57 432.8 1151.97 432.592C1152.37 432.384 1152.82 432.28 1153.33 432.28C1153.9 432.28 1154.43 432.424 1154.9 432.712C1155.38 432.992 1155.76 433.388 1156.03 433.9C1156.3 434.412 1156.44 435 1156.44 435.664C1156.44 436.328 1156.3 436.924 1156.03 437.452C1155.76 437.972 1155.38 438.38 1154.9 438.676C1154.43 438.964 1153.9 439.108 1153.33 439.108C1152.82 439.108 1152.38 439.008 1151.98 438.808C1151.59 438.6 1151.27 438.344 1151.02 438.04V442.144H1149.66V432.388H1151.02V433.36ZM1155.04 435.664C1155.04 435.208 1154.95 434.816 1154.76 434.488C1154.57 434.152 1154.32 433.9 1154.01 433.732C1153.71 433.556 1153.38 433.468 1153.03 433.468C1152.68 433.468 1152.36 433.556 1152.04 433.732C1151.74 433.908 1151.49 434.164 1151.3 434.5C1151.12 434.836 1151.02 435.232 1151.02 435.688C1151.02 436.144 1151.12 436.544 1151.3 436.888C1151.49 437.224 1151.74 437.48 1152.04 437.656C1152.36 437.832 1152.68 437.92 1153.03 437.92C1153.38 437.92 1153.71 437.832 1154.01 437.656C1154.32 437.472 1154.57 437.208 1154.76 436.864C1154.95 436.52 1155.04 436.12 1155.04 435.664Z" fill="#B5B5C3"/>
<path d="M69.5275 110.5V109.252H72.0235V118H70.6435V110.5H69.5275ZM79.5429 110.428H75.5229V112.816C75.6909 112.592 75.9389 112.404 76.2669 112.252C76.6029 112.1 76.9589 112.024 77.3349 112.024C78.0069 112.024 78.5509 112.168 78.9669 112.456C79.3909 112.744 79.6909 113.108 79.8669 113.548C80.0509 113.988 80.1429 114.452 80.1429 114.94C80.1429 115.532 80.0269 116.06 79.7949 116.524C79.5709 116.98 79.2309 117.34 78.7749 117.604C78.3269 117.868 77.7749 118 77.1189 118C76.2469 118 75.5469 117.784 75.0189 117.352C74.4909 116.92 74.1749 116.348 74.0709 115.636H75.4029C75.4909 116.012 75.6869 116.312 75.9909 116.536C76.2949 116.752 76.6749 116.86 77.1309 116.86C77.6989 116.86 78.1229 116.688 78.4029 116.344C78.6909 116 78.8349 115.544 78.8349 114.976C78.8349 114.4 78.6909 113.96 78.4029 113.656C78.1149 113.344 77.6909 113.188 77.1309 113.188C76.7389 113.188 76.4069 113.288 76.1349 113.488C75.8709 113.68 75.6789 113.944 75.5589 114.28H74.2629V109.228H79.5429V110.428ZM81.5669 113.512C81.5669 112.128 81.7989 111.048 82.2629 110.272C82.7349 109.488 83.5429 109.096 84.6869 109.096C85.8309 109.096 86.6349 109.488 87.0989 110.272C87.5709 111.048 87.8069 112.128 87.8069 113.512C87.8069 114.912 87.5709 116.008 87.0989 116.8C86.6349 117.584 85.8309 117.976 84.6869 117.976C83.5429 117.976 82.7349 117.584 82.2629 116.8C81.7989 116.008 81.5669 114.912 81.5669 113.512ZM86.4629 113.512C86.4629 112.864 86.4189 112.316 86.3309 111.868C86.2509 111.42 86.0829 111.056 85.8269 110.776C85.5709 110.488 85.1909 110.344 84.6869 110.344C84.1829 110.344 83.8029 110.488 83.5469 110.776C83.2909 111.056 83.1189 111.42 83.0309 111.868C82.9509 112.316 82.9109 112.864 82.9109 113.512C82.9109 114.184 82.9509 114.748 83.0309 115.204C83.1109 115.66 83.2789 116.028 83.5349 116.308C83.7989 116.588 84.1829 116.728 84.6869 116.728C85.1909 116.728 85.5709 116.588 85.8269 116.308C86.0909 116.028 86.2629 115.66 86.3429 115.204C86.4229 114.748 86.4629 114.184 86.4629 113.512Z" fill="#B5B5C3"/>
<path d="M69.5275 170.5V169.252H72.0235V178H70.6435V170.5H69.5275ZM74.6589 176.14C75.4269 175.476 76.0309 174.932 76.4709 174.508C76.9189 174.076 77.2909 173.628 77.5869 173.164C77.8829 172.7 78.0309 172.236 78.0309 171.772C78.0309 171.292 77.9149 170.916 77.6829 170.644C77.4589 170.372 77.1029 170.236 76.6149 170.236C76.1429 170.236 75.7749 170.388 75.5109 170.692C75.2549 170.988 75.1189 171.388 75.1029 171.892H73.7829C73.8069 170.98 74.0789 170.284 74.5989 169.804C75.1269 169.316 75.7949 169.072 76.6029 169.072C77.4749 169.072 78.1549 169.312 78.6429 169.792C79.1389 170.272 79.3869 170.912 79.3869 171.712C79.3869 172.288 79.2389 172.844 78.9429 173.38C78.6549 173.908 78.3069 174.384 77.8989 174.808C77.4989 175.224 76.9869 175.708 76.3629 176.26L75.8229 176.74H79.6269V177.88H73.7949V176.884L74.6589 176.14ZM80.8286 173.512C80.8286 172.128 81.0606 171.048 81.5246 170.272C81.9966 169.488 82.8046 169.096 83.9486 169.096C85.0926 169.096 85.8966 169.488 86.3606 170.272C86.8326 171.048 87.0686 172.128 87.0686 173.512C87.0686 174.912 86.8326 176.008 86.3606 176.8C85.8966 177.584 85.0926 177.976 83.9486 177.976C82.8046 177.976 81.9966 177.584 81.5246 176.8C81.0606 176.008 80.8286 174.912 80.8286 173.512ZM85.7246 173.512C85.7246 172.864 85.6806 172.316 85.5926 171.868C85.5126 171.42 85.3446 171.056 85.0886 170.776C84.8326 170.488 84.4526 170.344 83.9486 170.344C83.4446 170.344 83.0646 170.488 82.8086 170.776C82.5526 171.056 82.3806 171.42 82.2926 171.868C82.2126 172.316 82.1726 172.864 82.1726 173.512C82.1726 174.184 82.2126 174.748 82.2926 175.204C82.3726 175.66 82.5406 176.028 82.7966 176.308C83.0606 176.588 83.4446 176.728 83.9486 176.728C84.4526 176.728 84.8326 176.588 85.0886 176.308C85.3526 176.028 85.5246 175.66 85.6046 175.204C85.6846 174.748 85.7246 174.184 85.7246 173.512Z" fill="#B5B5C3"/>
<path d="M71.4115 235.624C71.4915 236.024 71.6635 236.328 71.9275 236.536C72.1915 236.744 72.5475 236.848 72.9955 236.848C73.5635 236.848 73.9795 236.624 74.2435 236.176C74.5075 235.728 74.6395 234.964 74.6395 233.884C74.4475 234.156 74.1755 234.368 73.8235 234.52C73.4795 234.664 73.1035 234.736 72.6955 234.736C72.1755 234.736 71.7035 234.632 71.2795 234.424C70.8555 234.208 70.5195 233.892 70.2715 233.476C70.0315 233.052 69.9115 232.54 69.9115 231.94C69.9115 231.06 70.1675 230.36 70.6795 229.84C71.1995 229.312 71.9115 229.048 72.8155 229.048C73.9035 229.048 74.6755 229.412 75.1315 230.14C75.5955 230.86 75.8275 231.968 75.8275 233.464C75.8275 234.496 75.7395 235.34 75.5635 235.996C75.3955 236.652 75.0995 237.148 74.6755 237.484C74.2515 237.82 73.6635 237.988 72.9115 237.988C72.0555 237.988 71.3955 237.764 70.9315 237.316C70.4675 236.868 70.2075 236.304 70.1515 235.624H71.4115ZM72.9355 233.584C73.4155 233.584 73.7915 233.436 74.0635 233.14C74.3435 232.836 74.4835 232.436 74.4835 231.94C74.4835 231.388 74.3355 230.96 74.0395 230.656C73.7515 230.344 73.3555 230.188 72.8515 230.188C72.3475 230.188 71.9475 230.348 71.6515 230.668C71.3635 230.98 71.2195 231.392 71.2195 231.904C71.2195 232.392 71.3595 232.796 71.6395 233.116C71.9275 233.428 72.3595 233.584 72.9355 233.584ZM77.3247 233.512C77.3247 232.128 77.5567 231.048 78.0207 230.272C78.4927 229.488 79.3007 229.096 80.4447 229.096C81.5887 229.096 82.3927 229.488 82.8567 230.272C83.3287 231.048 83.5647 232.128 83.5647 233.512C83.5647 234.912 83.3287 236.008 82.8567 236.8C82.3927 237.584 81.5887 237.976 80.4447 237.976C79.3007 237.976 78.4927 237.584 78.0207 236.8C77.5567 236.008 77.3247 234.912 77.3247 233.512ZM82.2207 233.512C82.2207 232.864 82.1767 232.316 82.0887 231.868C82.0087 231.42 81.8407 231.056 81.5847 230.776C81.3287 230.488 80.9487 230.344 80.4447 230.344C79.9407 230.344 79.5607 230.488 79.3047 230.776C79.0487 231.056 78.8767 231.42 78.7887 231.868C78.7087 232.316 78.6687 232.864 78.6687 233.512C78.6687 234.184 78.7087 234.748 78.7887 235.204C78.8687 235.66 79.0367 236.028 79.2927 236.308C79.5567 236.588 79.9407 236.728 80.4447 236.728C80.9487 236.728 81.3287 236.588 81.5847 236.308C81.8487 236.028 82.0207 235.66 82.1007 235.204C82.1807 234.748 82.2207 234.184 82.2207 233.512Z" fill="#B5B5C3"/>
<path d="M74.4115 291.28C74.3235 290.912 74.1635 290.636 73.9315 290.452C73.6995 290.268 73.3755 290.176 72.9595 290.176C72.3275 290.176 71.8555 290.42 71.5435 290.908C71.2315 291.388 71.0675 292.188 71.0515 293.308C71.2595 292.956 71.5635 292.684 71.9635 292.492C72.3635 292.3 72.7955 292.204 73.2595 292.204C73.7875 292.204 74.2515 292.32 74.6515 292.552C75.0595 292.776 75.3755 293.104 75.5995 293.536C75.8315 293.968 75.9475 294.484 75.9475 295.084C75.9475 295.644 75.8355 296.144 75.6115 296.584C75.3955 297.024 75.0715 297.372 74.6395 297.628C74.2075 297.876 73.6875 298 73.0795 298C72.2555 298 71.6075 297.82 71.1355 297.46C70.6715 297.092 70.3435 296.576 70.1515 295.912C69.9675 295.248 69.8755 294.42 69.8755 293.428C69.8755 290.5 70.9075 289.036 72.9715 289.036C73.7715 289.036 74.3995 289.252 74.8555 289.684C75.3195 290.116 75.5915 290.648 75.6715 291.28H74.4115ZM72.9595 293.356C72.4715 293.356 72.0555 293.504 71.7115 293.8C71.3755 294.088 71.2075 294.508 71.2075 295.06C71.2075 295.612 71.3635 296.052 71.6755 296.38C71.9955 296.7 72.4395 296.86 73.0075 296.86C73.5115 296.86 73.9075 296.704 74.1955 296.392C74.4915 296.08 74.6395 295.664 74.6395 295.144C74.6395 294.6 74.4955 294.168 74.2075 293.848C73.9275 293.52 73.5115 293.356 72.9595 293.356ZM77.4068 293.512C77.4068 292.128 77.6388 291.048 78.1028 290.272C78.5748 289.488 79.3828 289.096 80.5268 289.096C81.6708 289.096 82.4748 289.488 82.9388 290.272C83.4108 291.048 83.6468 292.128 83.6468 293.512C83.6468 294.912 83.4108 296.008 82.9388 296.8C82.4748 297.584 81.6708 297.976 80.5268 297.976C79.3828 297.976 78.5748 297.584 78.1028 296.8C77.6388 296.008 77.4068 294.912 77.4068 293.512ZM82.3028 293.512C82.3028 292.864 82.2588 292.316 82.1708 291.868C82.0908 291.42 81.9228 291.056 81.6668 290.776C81.4108 290.488 81.0308 290.344 80.5268 290.344C80.0228 290.344 79.6428 290.488 79.3868 290.776C79.1308 291.056 78.9588 291.42 78.8708 291.868C78.7908 292.316 78.7508 292.864 78.7508 293.512C78.7508 294.184 78.7908 294.748 78.8708 295.204C78.9508 295.66 79.1188 296.028 79.3748 296.308C79.6388 296.588 80.0228 296.728 80.5268 296.728C81.0308 296.728 81.4108 296.588 81.6668 296.308C81.9308 296.028 82.1028 295.66 82.1828 295.204C82.2628 294.748 82.3028 294.184 82.3028 293.512Z" fill="#B5B5C3"/>
<path d="M69.6835 351.412C69.7315 350.668 70.0155 350.088 70.5355 349.672C71.0635 349.256 71.7355 349.048 72.5515 349.048C73.1115 349.048 73.5955 349.148 74.0035 349.348C74.4115 349.548 74.7195 349.82 74.9275 350.164C75.1355 350.508 75.2395 350.896 75.2395 351.328C75.2395 351.824 75.1075 352.248 74.8435 352.6C74.5795 352.952 74.2635 353.188 73.8955 353.308V353.356C74.3675 353.5 74.7355 353.764 74.9995 354.148C75.2635 354.524 75.3955 355.008 75.3955 355.6C75.3955 356.072 75.2875 356.492 75.0715 356.86C74.8555 357.228 74.5355 357.52 74.1115 357.736C73.6875 357.944 73.1795 358.048 72.5875 358.048C71.7235 358.048 71.0115 357.828 70.4515 357.388C69.8995 356.94 69.6035 356.3 69.5635 355.468H70.8835C70.9155 355.892 71.0795 356.24 71.3755 356.512C71.6715 356.776 72.0715 356.908 72.5755 356.908C73.0635 356.908 73.4395 356.776 73.7035 356.512C73.9675 356.24 74.0995 355.892 74.0995 355.468C74.0995 354.908 73.9195 354.512 73.5595 354.28C73.2075 354.04 72.6635 353.92 71.9275 353.92H71.6155V352.792H71.9395C72.5875 352.784 73.0795 352.676 73.4155 352.468C73.7595 352.26 73.9315 351.932 73.9315 351.484C73.9315 351.1 73.8075 350.796 73.5595 350.572C73.3115 350.34 72.9595 350.224 72.5035 350.224C72.0555 350.224 71.7075 350.34 71.4595 350.572C71.2115 350.796 71.0635 351.076 71.0155 351.412H69.6835ZM76.8325 353.512C76.8325 352.128 77.0645 351.048 77.5285 350.272C78.0005 349.488 78.8085 349.096 79.9525 349.096C81.0965 349.096 81.9005 349.488 82.3645 350.272C82.8365 351.048 83.0725 352.128 83.0725 353.512C83.0725 354.912 82.8365 356.008 82.3645 356.8C81.9005 357.584 81.0965 357.976 79.9525 357.976C78.8085 357.976 78.0005 357.584 77.5285 356.8C77.0645 356.008 76.8325 354.912 76.8325 353.512ZM81.7285 353.512C81.7285 352.864 81.6845 352.316 81.5965 351.868C81.5165 351.42 81.3485 351.056 81.0925 350.776C80.8365 350.488 80.4565 350.344 79.9525 350.344C79.4485 350.344 79.0685 350.488 78.8125 350.776C78.5565 351.056 78.3845 351.42 78.2965 351.868C78.2165 352.316 78.1765 352.864 78.1765 353.512C78.1765 354.184 78.2165 354.748 78.2965 355.204C78.3765 355.66 78.5445 356.028 78.8005 356.308C79.0645 356.588 79.4485 356.728 79.9525 356.728C80.4565 356.728 80.8365 356.588 81.0925 356.308C81.3565 356.028 81.5285 355.66 81.6085 355.204C81.6885 354.748 81.7285 354.184 81.7285 353.512Z" fill="#B5B5C3"/>
<path d="M69.7075 413.512C69.7075 412.128 69.9395 411.048 70.4035 410.272C70.8755 409.488 71.6835 409.096 72.8275 409.096C73.9715 409.096 74.7755 409.488 75.2395 410.272C75.7115 411.048 75.9475 412.128 75.9475 413.512C75.9475 414.912 75.7115 416.008 75.2395 416.8C74.7755 417.584 73.9715 417.976 72.8275 417.976C71.6835 417.976 70.8755 417.584 70.4035 416.8C69.9395 416.008 69.7075 414.912 69.7075 413.512ZM74.6035 413.512C74.6035 412.864 74.5595 412.316 74.4715 411.868C74.3915 411.42 74.2235 411.056 73.9675 410.776C73.7115 410.488 73.3315 410.344 72.8275 410.344C72.3235 410.344 71.9435 410.488 71.6875 410.776C71.4315 411.056 71.2595 411.42 71.1715 411.868C71.0915 412.316 71.0515 412.864 71.0515 413.512C71.0515 414.184 71.0915 414.748 71.1715 415.204C71.2515 415.66 71.4195 416.028 71.6755 416.308C71.9395 416.588 72.3235 416.728 72.8275 416.728C73.3315 416.728 73.7115 416.588 73.9675 416.308C74.2315 416.028 74.4035 415.66 74.4835 415.204C74.5635 414.748 74.6035 414.184 74.6035 413.512Z" fill="#B5B5C3"/>
<path d="M241.724 297H285.069C287.278 297 289.069 298.791 289.069 301V410C289.069 412.209 287.278 414 285.069 414H241.724V297Z" fill="#E5EAEE"/>
<rect x="219.081" y="267" width="28.8188" height="147" rx="4" fill="#FFA800"/>
<path d="M418.754 248H462.1C464.309 248 466.1 249.791 466.1 252V410C466.1 412.209 464.309 414 462.1 414H418.754V248Z" fill="#E5EAEE"/>
<rect x="396.111" y="218" width="28.8188" height="196" rx="4" fill="#FFA800"/>
<path d="M595.783 197H639.129C641.338 197 643.129 198.791 643.129 201V410C643.129 412.209 641.338 414 639.129 414H595.783V197Z" fill="#E5EAEE"/>
<rect x="573.14" y="167" width="28.8188" height="247" rx="4" fill="#FFA800"/>
<path d="M772.814 236.535H816.159C818.368 236.535 820.159 238.326 820.159 240.535V410C820.159 412.209 818.368 414 816.159 414H772.814V236.535Z" fill="#E5EAEE"/>
<rect x="750.171" y="207" width="28.8189" height="207" rx="4" fill="#FFA800"/>
<path d="M949.843 205.671H993.189C995.398 205.671 997.189 207.462 997.189 209.671V410C997.189 412.209 995.398 414 993.189 414H949.843V205.671Z" fill="#E5EAEE"/>
<rect x="927.2" y="176" width="28.8189" height="238" rx="4" fill="#FFA800"/>
<path d="M1126.87 157H1170.22C1172.43 157 1174.22 158.791 1174.22 161V410C1174.22 412.209 1172.43 414 1170.22 414H1126.87V157Z" fill="#E5EAEE"/>
<rect x="1104.23" y="127" width="28.8187" height="287" rx="4" fill="#FFA800"/>
<path d="M37.7554 35.234C37.7554 36.476 37.0354 37.358 35.4334 37.358H33.1654V33.164H35.4334C37.0354 33.164 37.7554 33.974 37.7554 35.234ZM31.1134 31.49V44H33.1654V38.996H34.7314L37.6114 44H40.0594L36.9634 38.816C39.0694 38.294 39.8614 36.71 39.8614 35.234C39.8614 33.2 38.4034 31.49 35.4334 31.49H31.1134ZM46.6625 35.648C48.1925 35.648 49.3985 36.62 49.4345 38.15H43.9445C44.1605 36.584 45.2765 35.648 46.6625 35.648ZM51.3065 41.048H49.0925C48.7145 41.822 48.0125 42.434 46.7525 42.434C45.2405 42.434 44.0705 41.444 43.9265 39.806H51.5045C51.5585 39.464 51.5765 39.14 51.5765 38.798C51.5765 35.882 49.5785 33.92 46.7525 33.92C43.8185 33.92 41.8025 35.918 41.8025 39.032C41.8025 42.146 43.9085 44.162 46.7525 44.162C49.1825 44.162 50.7485 42.776 51.3065 41.048ZM52.9118 39.032C52.9118 42.146 54.9278 44.162 57.7718 44.162C60.2019 44.162 61.7859 42.812 62.3439 40.868H60.1299C59.7519 41.894 58.9959 42.434 57.7718 42.434C56.1158 42.434 55.0178 41.21 55.0178 39.032C55.0178 36.872 56.1158 35.648 57.7718 35.648C58.9959 35.648 59.7879 36.26 60.1299 37.214H62.3439C61.7859 35.126 60.2019 33.92 57.7718 33.92C54.9278 33.92 52.9118 35.936 52.9118 39.032ZM68.5648 35.648C70.0948 35.648 71.3008 36.62 71.3368 38.15H65.8468C66.0628 36.584 67.1788 35.648 68.5648 35.648ZM73.2088 41.048H70.9948C70.6168 41.822 69.9148 42.434 68.6548 42.434C67.1428 42.434 65.9728 41.444 65.8288 39.806H73.4068C73.4608 39.464 73.4788 39.14 73.4788 38.798C73.4788 35.882 71.4808 33.92 68.6548 33.92C65.7208 33.92 63.7048 35.918 63.7048 39.032C63.7048 42.146 65.8108 44.162 68.6548 44.162C71.0848 44.162 72.6508 42.776 73.2088 41.048ZM82.5362 44H84.5702V38.15C84.5702 35.378 82.8242 33.92 80.5022 33.92C79.3142 33.92 78.2162 34.406 77.5502 35.216V34.082H75.4982V44H77.5502V38.456C77.5502 36.638 78.5402 35.702 80.0522 35.702C81.5462 35.702 82.5362 36.638 82.5362 38.456V44ZM87.5116 41.246C87.5116 43.262 88.6096 44 90.3736 44H91.9936V42.29H90.7336C89.8696 42.29 89.5816 41.984 89.5816 41.246V35.756H91.9936V34.082H89.5816V31.616H87.5116V34.082H86.3416V35.756H87.5116V41.246ZM107.003 40.454C107.003 35.882 100.379 37.646 100.379 34.82C100.379 33.614 101.297 33.038 102.485 33.074C103.781 33.11 104.519 33.884 104.591 34.73H106.859C106.679 32.588 104.987 31.328 102.593 31.328C100.037 31.328 98.2907 32.696 98.2907 34.892C98.2907 39.5 104.933 37.538 104.933 40.562C104.933 41.624 104.123 42.398 102.683 42.398C101.261 42.398 100.541 41.57 100.451 40.544H98.2547C98.2547 42.758 100.181 44.126 102.683 44.126C105.473 44.126 107.003 42.326 107.003 40.454ZM109.748 41.246C109.748 43.262 110.846 44 112.61 44H114.23V42.29H112.97C112.106 42.29 111.818 41.984 111.818 41.246V35.756H114.23V34.082H111.818V31.616H109.748V34.082H108.578V35.756H109.748V41.246ZM115.437 38.996C115.437 42.056 117.507 44.162 120.081 44.162C121.737 44.162 122.925 43.37 123.555 42.524V44H125.625V34.082H123.555V35.522C122.943 34.712 121.791 33.92 120.117 33.92C117.507 33.92 115.437 35.936 115.437 38.996ZM123.555 39.032C123.555 41.174 122.097 42.38 120.549 42.38C119.019 42.38 117.543 41.138 117.543 38.996C117.543 36.854 119.019 35.702 120.549 35.702C122.097 35.702 123.555 36.908 123.555 39.032ZM128.644 41.246C128.644 43.262 129.742 44 131.506 44H133.126V42.29H131.866C131.002 42.29 130.714 41.984 130.714 41.246V35.756H133.126V34.082H130.714V31.616H128.644V34.082H127.474V35.756H128.644V41.246ZM142.416 41.228C142.308 37.646 136.71 38.762 136.71 36.764C136.71 36.098 137.286 35.648 138.384 35.648C139.5 35.648 140.166 36.242 140.238 37.106H142.29C142.182 35.126 140.706 33.92 138.456 33.92C136.116 33.92 134.64 35.198 134.64 36.782C134.64 40.418 140.4 39.302 140.4 41.246C140.4 41.93 139.77 42.434 138.582 42.434C137.448 42.434 136.674 41.768 136.602 40.958H134.478C134.568 42.758 136.242 44.162 138.618 44.162C140.958 44.162 142.416 42.902 142.416 41.228Z" fill="#212121"/>
<path d="M30.6634 71H32.0314V65.288L34.5874 71H35.5354L38.0794 65.288V71H39.4474V62.66H37.9834L35.0674 69.2L32.1394 62.66H30.6634V71ZM47.5455 67.688C47.5455 65.612 46.0575 64.28 44.1735 64.28C42.2895 64.28 40.8015 65.612 40.8015 67.688C40.8015 69.764 42.2295 71.108 44.1135 71.108C46.0095 71.108 47.5455 69.764 47.5455 67.688ZM42.1935 67.688C42.1935 66.188 43.1175 65.468 44.1495 65.468C45.1695 65.468 46.1415 66.188 46.1415 67.688C46.1415 69.188 45.1335 69.92 44.1135 69.92C43.0815 69.92 42.1935 69.188 42.1935 67.688ZM50.2658 67.52C50.2658 66.116 50.8898 65.696 51.8978 65.696H52.2458V64.28C51.3098 64.28 50.6498 64.688 50.2658 65.348V64.388H48.8978V71H50.2658V67.52ZM56.2873 65.432C57.3073 65.432 58.1113 66.08 58.1353 67.1H54.4753C54.6193 66.056 55.3633 65.432 56.2873 65.432ZM59.3833 69.032H57.9073C57.6553 69.548 57.1873 69.956 56.3473 69.956C55.3393 69.956 54.5593 69.296 54.4633 68.204H59.5153C59.5513 67.976 59.5633 67.76 59.5633 67.532C59.5633 65.588 58.2313 64.28 56.3473 64.28C54.3913 64.28 53.0473 65.612 53.0473 67.688C53.0473 69.764 54.4513 71.108 56.3473 71.108C57.9673 71.108 59.0113 70.184 59.3833 69.032ZM64.2427 69.164C64.2427 70.508 64.9747 71 66.1507 71H67.2307V69.86H66.3907C65.8147 69.86 65.6227 69.656 65.6227 69.164V65.504H67.2307V64.388H65.6227V62.744H64.2427V64.388H63.4627V65.504H64.2427V69.164ZM68.4916 71H69.8596V67.304C69.8596 66.092 70.5196 65.468 71.5276 65.468C72.5236 65.468 73.1836 66.092 73.1836 67.304V71H74.5396V67.1C74.5396 65.252 73.3876 64.28 71.9116 64.28C71.0596 64.28 70.3156 64.604 69.8596 65.156V62.12H68.4916V71ZM75.8285 67.664C75.8285 69.704 77.2085 71.108 78.9245 71.108C80.0285 71.108 80.8205 70.58 81.2405 70.016V71H82.6205V64.388H81.2405V65.348C80.8325 64.808 80.0645 64.28 78.9485 64.28C77.2085 64.28 75.8285 65.624 75.8285 67.664ZM81.2405 67.688C81.2405 69.116 80.2685 69.92 79.2365 69.92C78.2165 69.92 77.2325 69.092 77.2325 67.664C77.2325 66.236 78.2165 65.468 79.2365 65.468C80.2685 65.468 81.2405 66.272 81.2405 67.688ZM89.1093 71H90.4653V67.1C90.4653 65.252 89.3013 64.28 87.7533 64.28C86.9613 64.28 86.2293 64.604 85.7853 65.144V64.388H84.4173V71H85.7853V67.304C85.7853 66.092 86.4453 65.468 87.4533 65.468C88.4493 65.468 89.1093 66.092 89.1093 67.304V71ZM99.3235 71H100.667V69.176H101.783V67.988H100.667V62.36H99.0115L94.9795 68.144V69.176H99.3235V71ZM96.5515 67.988L99.3835 63.752V67.988H96.5515ZM102.917 66.512C102.917 69.056 103.589 70.976 106.037 70.976C108.485 70.976 109.157 69.056 109.157 66.512C109.157 64.016 108.485 62.096 106.037 62.096C103.589 62.096 102.917 64.016 102.917 66.512ZM107.813 66.512C107.813 68.228 107.633 69.728 106.037 69.728C104.441 69.728 104.261 68.228 104.261 66.512C104.261 64.88 104.441 63.344 106.037 63.344C107.633 63.344 107.813 64.88 107.813 66.512ZM110.605 66.512C110.605 69.056 111.277 70.976 113.725 70.976C116.173 70.976 116.845 69.056 116.845 66.512C116.845 64.016 116.173 62.096 113.725 62.096C111.277 62.096 110.605 64.016 110.605 66.512ZM115.501 66.512C115.501 68.228 115.321 69.728 113.725 69.728C112.129 69.728 111.949 68.228 111.949 66.512C111.949 64.88 112.129 63.344 113.725 63.344C115.321 63.344 115.501 64.88 115.501 66.512ZM121.22 63.608V66.092H118.796V67.244H121.22V69.728H122.492V67.244H124.916V66.092H122.492V63.608H121.22ZM134.848 71H136.204V67.1C136.204 65.252 135.04 64.28 133.492 64.28C132.7 64.28 131.968 64.604 131.524 65.144V64.388H130.156V71H131.524V67.304C131.524 66.092 132.184 65.468 133.192 65.468C134.188 65.468 134.848 66.092 134.848 67.304V71ZM140.733 65.432C141.753 65.432 142.557 66.08 142.581 67.1H138.921C139.065 66.056 139.809 65.432 140.733 65.432ZM143.829 69.032H142.353C142.101 69.548 141.633 69.956 140.793 69.956C139.785 69.956 139.005 69.296 138.909 68.204H143.961C143.997 67.976 144.009 67.76 144.009 67.532C144.009 65.588 142.677 64.28 140.793 64.28C138.837 64.28 137.493 65.612 137.493 67.688C137.493 69.764 138.897 71.108 140.793 71.108C142.413 71.108 143.457 70.184 143.829 69.032ZM146.639 71H148.079L149.411 66.116L150.743 71H152.183L154.235 64.388H152.891L151.523 69.68L150.179 64.388H148.751L147.347 69.704L145.967 64.388H144.575L146.639 71ZM167.746 71H169.102V67.1C169.102 65.252 167.926 64.28 166.378 64.28C165.418 64.28 164.482 64.784 164.074 65.588C163.618 64.724 162.742 64.28 161.698 64.28C160.906 64.28 160.186 64.604 159.742 65.144V64.388H158.374V71H159.742V67.304C159.742 66.092 160.402 65.468 161.41 65.468C162.406 65.468 163.066 66.092 163.066 67.304V71H164.422V67.304C164.422 66.092 165.082 65.468 166.09 65.468C167.086 65.468 167.746 66.092 167.746 67.304V71ZM173.627 65.432C174.647 65.432 175.451 66.08 175.475 67.1H171.815C171.959 66.056 172.703 65.432 173.627 65.432ZM176.723 69.032H175.247C174.995 69.548 174.527 69.956 173.687 69.956C172.679 69.956 171.899 69.296 171.803 68.204H176.855C176.891 67.976 176.903 67.76 176.903 67.532C176.903 65.588 175.571 64.28 173.687 64.28C171.731 64.28 170.387 65.612 170.387 67.688C170.387 69.764 171.791 71.108 173.687 71.108C175.307 71.108 176.351 70.184 176.723 69.032ZM187.621 71H188.977V67.1C188.977 65.252 187.801 64.28 186.253 64.28C185.293 64.28 184.357 64.784 183.949 65.588C183.493 64.724 182.617 64.28 181.573 64.28C180.781 64.28 180.061 64.604 179.617 65.144V64.388H178.249V71H179.617V67.304C179.617 66.092 180.277 65.468 181.285 65.468C182.281 65.468 182.941 66.092 182.941 67.304V71H184.297V67.304C184.297 66.092 184.957 65.468 185.965 65.468C186.961 65.468 187.621 66.092 187.621 67.304V71ZM192.086 65.372V62.12H190.718V71H192.086V70.04C192.518 70.616 193.298 71.108 194.39 71.108C196.13 71.108 197.498 69.704 197.498 67.664C197.498 65.624 196.142 64.28 194.39 64.28C193.346 64.28 192.518 64.772 192.086 65.372ZM196.106 67.664C196.106 69.092 195.122 69.92 194.09 69.92C193.07 69.92 192.086 69.116 192.086 67.688C192.086 66.272 193.07 65.468 194.09 65.468C195.122 65.468 196.106 66.236 196.106 67.664ZM201.635 65.432C202.655 65.432 203.459 66.08 203.483 67.1H199.823C199.967 66.056 200.711 65.432 201.635 65.432ZM204.731 69.032H203.255C203.003 69.548 202.535 69.956 201.695 69.956C200.687 69.956 199.907 69.296 199.811 68.204H204.863C204.899 67.976 204.911 67.76 204.911 67.532C204.911 65.588 203.579 64.28 201.695 64.28C199.739 64.28 198.395 65.612 198.395 67.688C198.395 69.764 199.799 71.108 201.695 71.108C203.315 71.108 204.359 70.184 204.731 69.032ZM207.625 67.52C207.625 66.116 208.249 65.696 209.257 65.696H209.605V64.28C208.669 64.28 208.009 64.688 207.625 65.348V64.388H206.257V71H207.625V67.52ZM215.795 69.152C215.723 66.764 211.991 67.508 211.991 66.176C211.991 65.732 212.375 65.432 213.107 65.432C213.851 65.432 214.295 65.828 214.343 66.404H215.711C215.639 65.084 214.655 64.28 213.155 64.28C211.595 64.28 210.611 65.132 210.611 66.188C210.611 68.612 214.451 67.868 214.451 69.164C214.451 69.62 214.031 69.956 213.239 69.956C212.483 69.956 211.967 69.512 211.919 68.972H210.503C210.563 70.172 211.679 71.108 213.263 71.108C214.823 71.108 215.795 70.268 215.795 69.152Z" fill="#80808F"/>
</svg>
